<svg width="590.325" height="590.325" xmlns="http://www.w3.org/2000/svg">

 <g>
  <title>background</title>
  <rect fill="none" id="canvas_background" height="402" width="582" y="-1" x="-1"/>
 </g>
 <g>
  <title>Layer 1</title>
  <g id="svg_1">
   <path id="svg_2" fill="#673ab7" d="m359.550995,199.899994c-17.85199,31.875 -52.274994,45.900009 -73.950989,31.875c-22.950012,-14.025009 -26.774994,-49.724991 -7.649994,-80.324997c19.125,-30.599998 52.273987,-45.899994 73.949982,-31.875c21.675018,14.025009 25.501007,49.725006 7.651001,80.324997zm-192.526001,34.425003c25.5,6.375 53.550003,-15.300003 63.75,-51c10.199997,-35.699997 -3.824997,-68.849998 -29.324997,-76.5c-25.5,-6.375 -53.550003,15.300003 -63.75,51c-10.199997,35.699997 3.824997,70.125 29.324997,76.5zm317.475006,133.875015c-8.925995,-24.226013 -44.625,-34.424988 -77.774994,-22.950012c-34.424011,12.75 -54.824005,43.350006 -44.625,67.575012c8.925995,24.225006 44.625,34.424988 77.774994,22.950012c34.425995,-11.475037 54.825012,-42.075012 44.625,-67.575012zm-49.723999,-71.400024c29.324005,-20.399994 40.799011,-54.824997 25.5,-76.5c-15.300995,-21.675003 -52.274994,-21.675003 -81.600006,-1.274994c-29.325989,20.399994 -40.800995,54.824982 -25.5,76.5c16.574005,22.950012 52.274017,22.950012 81.600006,1.274994zm-318.750999,-3.824982c-48.449005,52.274994 29.325996,49.725006 82.874992,98.174988c52.275009,48.449005 61.199982,130.050018 109.651001,77.774017c48.449005,-52.274017 44.625,-135.149017 -7.649994,-183.600006c-53.550003,-48.449005 -135.151001,-45.899002 -184.875999,7.651001zm474.300011,2.549988c0,163.199005 -132.600006,295.799957 -295.799011,295.799957s-294.526001,-132.599945 -294.526001,-295.799957c0,-163.199997 132.600998,-294.524994 294.524994,-294.524994c163.200012,0 295.800018,131.324997 295.800018,294.524994zm-51,0c0,-133.875 -109.649017,-243.524994 -244.800018,-243.524994c-135.149994,0 -243.524994,109.649994 -243.524994,243.524994c0,135.149017 109.649994,244.800018 244.799988,244.800018c133.876007,0 243.525024,-109.650024 243.525024,-244.800018z"/>
  </g>
  <g id="svg_3"/>
  <g id="svg_4"/>
  <g id="svg_5"/>
  <g id="svg_6"/>
  <g id="svg_7"/>
  <g id="svg_8"/>
  <g id="svg_9"/>
  <g id="svg_10"/>
  <g id="svg_11"/>
  <g id="svg_12"/>
  <g id="svg_13"/>
  <g id="svg_14"/>
  <g id="svg_15"/>
  <g id="svg_16"/>
  <g id="svg_17"/>
 </g>
</svg>